<svg width="751" height="497" viewBox="0 0 751 497" fill="none" xmlns="http://www.w3.org/2000/svg">
<g filter="url(#filter0_d_1021_2376)">
<g filter="url(#filter1_b_1021_2376)">
<rect x="343" y="324" width="85" height="85" rx="42.5" fill="white"/>
</g>
<g clip-path="url(#clip0_1021_2376)">
<rect width="33.9753" height="51" transform="translate(369.066 341)" fill="white"/>
<path d="M386.039 366.509C386.039 361.828 389.834 358.014 394.535 358.014C399.216 358.014 403.03 361.809 403.03 366.509C403.03 371.19 399.235 375.005 394.535 375.005C389.853 375.005 386.039 371.19 386.039 366.509Z" fill="#1ABCFE"/>
<path d="M369.066 383.482C369.066 378.801 372.861 374.986 377.562 374.986H386.057V383.482C386.057 388.163 382.262 391.977 377.562 391.977C372.861 391.977 369.066 388.182 369.066 383.482Z" fill="#0ACF83"/>
<path d="M386.039 341.042V358.014H394.535C399.216 358.014 403.03 354.219 403.03 349.519C403.03 344.837 399.235 341.023 394.535 341.023H386.039V341.042Z" fill="#FF7262"/>
<path d="M369.066 349.538C369.066 354.22 372.861 358.034 377.562 358.034H386.057V341.043H377.562C372.861 341.043 369.066 344.838 369.066 349.538Z" fill="#F24E1E"/>
<path d="M369.066 366.509C369.066 371.19 372.861 375.005 377.562 375.005H386.057V358.014H377.562C372.861 358.014 369.066 361.828 369.066 366.509Z" fill="#A259FF"/>
</g>
</g>
<g filter="url(#filter2_d_1021_2376)">
<g filter="url(#filter3_b_1021_2376)">
<rect x="619" y="239" width="85" height="85" rx="42.5" fill="white"/>
</g>
<g clip-path="url(#clip1_1021_2376)">
<rect width="49.0408" height="45.3333" transform="translate(637.133 259.4)" fill="white"/>
<path d="M675.509 283.4C669.617 283.4 664.843 288.175 664.843 294.065C664.843 299.956 669.617 304.732 675.509 304.732C681.399 304.732 686.174 299.956 686.174 294.065C686.174 288.175 681.399 283.4 675.509 283.4ZM647.798 283.401C641.908 283.401 637.133 288.175 637.133 294.066C637.133 299.956 641.908 304.731 647.798 304.731C653.689 304.731 658.464 299.956 658.464 294.066C658.464 288.175 653.689 283.401 647.798 283.401H647.798ZM672.319 270.068C672.319 275.958 667.544 280.735 661.654 280.735C655.763 280.735 650.988 275.958 650.988 270.068C650.988 264.178 655.763 259.403 661.654 259.403C667.544 259.403 672.318 264.178 672.318 270.068H672.319Z" fill="url(#paint0_radial_1021_2376)"/>
</g>
</g>
<g filter="url(#filter4_d_1021_2376)">
<g filter="url(#filter5_b_1021_2376)">
<rect x="77" y="252" width="85" height="85" rx="42.5" fill="white"/>
</g>
<g clip-path="url(#clip2_1021_2376)">
<rect width="45.3333" height="45.3333" transform="translate(97.3984 272.4)" fill="white"/>
<path d="M100.489 312.75H107.701V295.235L97.3984 287.508V309.66C97.3984 311.367 98.7816 312.751 100.489 312.751V312.75Z" fill="#4285F4"/>
<path d="M132.43 312.75H139.642C141.35 312.75 142.733 311.367 142.733 309.66V287.508L132.43 295.235V312.75Z" fill="#34A853"/>
<path d="M132.43 281.841V295.235L142.733 287.508V283.387C142.733 279.567 138.372 277.385 135.315 279.678L132.43 281.841Z" fill="#FBBC04"/>
<path fill-rule="evenodd" clip-rule="evenodd" d="M107.703 295.236V281.842L120.067 291.115L132.43 281.842V295.236L120.067 304.508L107.703 295.236Z" fill="#EA4335"/>
<path d="M97.3984 283.387V287.508L107.701 295.235V281.841L104.817 279.678C101.759 277.385 97.3984 279.567 97.3984 283.387V283.387Z" fill="#C5221F"/>
</g>
</g>
<g filter="url(#filter6_d_1021_2376)">
<g filter="url(#filter7_b_1021_2376)">
<rect x="225" y="80" width="85" height="85" rx="42.5" fill="white"/>
</g>
<g clip-path="url(#clip3_1021_2376)">
<rect width="50.4376" height="45.3333" transform="translate(242 100.4)" fill="white"/>
<path d="M276.472 131.117H258.019L250.117 144.92C251.068 145.403 252.147 145.713 252.845 145.713C260.104 145.713 274.919 145.606 282.273 145.606C283.029 145.606 283.737 145.348 284.372 144.944L276.472 131.117Z" fill="#4185F3"/>
<path d="M250.118 144.92L258.02 131.117H242.008C242 132.076 242.341 132.954 242.875 133.955C244.364 136.74 246.883 141.193 248.363 143.518C248.727 144.091 250.175 144.949 250.118 144.92Z" fill="#1767D1"/>
<path d="M276.473 131.116L284.375 144.941C285.399 144.29 286.234 143.259 286.776 142.309C287.999 140.168 290.068 136.602 291.495 134.188C292.158 133.066 292.416 132.058 292.4 131.115L276.473 131.116Z" fill="#E94235"/>
<path d="M258.021 131.117L267.238 115.094L259 101.36C258.109 101.946 257.347 102.741 257.001 103.347C253.406 109.653 246.162 122.578 242.52 128.965C242.147 129.619 241.968 130.366 242.005 131.117H258.021Z" fill="#30A753"/>
<path d="M276.472 131.117L267.238 115.093L275.25 101.375C276.141 101.961 277.119 102.741 277.465 103.347C281.06 109.653 288.304 122.577 291.948 128.965C292.324 129.622 292.437 130.365 292.4 131.117H276.472Z" fill="#F9BC00"/>
<path d="M259 101.361L267.239 115.093L275.25 101.375C274.423 100.891 273.252 100.605 272.117 100.569C268.962 100.464 263.845 100.421 261.092 100.541C260.413 100.571 259.009 101.355 259 101.361Z" fill="#0F8038"/>
</g>
</g>
<g filter="url(#filter8_d_1021_2376)">
<g filter="url(#filter9_b_1021_2376)">
<rect x="482" y="134" width="85" height="85" rx="42.5" fill="white"/>
</g>
<g clip-path="url(#clip4_1021_2376)">
<rect width="45.3333" height="45.3333" transform="translate(502.398 154.4)" fill="white"/>
<path d="M543.305 154.4H506.826C504.381 154.4 502.398 156.382 502.398 158.827V195.307C502.398 197.752 504.381 199.734 506.826 199.734H543.305C545.75 199.734 547.732 197.752 547.732 195.307V158.827C547.732 156.382 545.75 154.4 543.305 154.4Z" fill="url(#paint1_linear_1021_2376)"/>
<path d="M539.713 160.293H530.137C528.963 160.293 528.012 161.244 528.012 162.418V178.001C528.012 179.175 528.963 180.126 530.137 180.126H539.713C540.887 180.126 541.838 179.175 541.838 178.001V162.418C541.838 161.244 540.887 160.293 539.713 160.293Z" fill="white"/>
<path d="M519.995 160.293H510.418C509.244 160.293 508.293 161.244 508.293 162.418V189.335C508.293 190.508 509.244 191.46 510.418 191.46H519.995C521.168 191.46 522.12 190.508 522.12 189.335V162.418C522.12 161.244 521.168 160.293 519.995 160.293Z" fill="white"/>
</g>
</g>
<defs>
<filter id="filter0_d_1021_2376" x="266" y="244" width="253" height="253" filterUnits="userSpaceOnUse" color-interpolation-filters="sRGB">
<feFlood flood-opacity="0" result="BackgroundImageFix"/>
<feColorMatrix in="SourceAlpha" type="matrix" values="0 0 0 0 0 0 0 0 0 0 0 0 0 0 0 0 0 0 127 0" result="hardAlpha"/>
<feOffset dx="7" dy="4"/>
<feGaussianBlur stdDeviation="42"/>
<feComposite in2="hardAlpha" operator="out"/>
<feColorMatrix type="matrix" values="0 0 0 0 0 0 0 0 0 0 0 0 0 0 0 0 0 0 0.16 0"/>
<feBlend mode="normal" in2="BackgroundImageFix" result="effect1_dropShadow_1021_2376"/>
<feBlend mode="normal" in="SourceGraphic" in2="effect1_dropShadow_1021_2376" result="shape"/>
</filter>
<filter id="filter1_b_1021_2376" x="331" y="312" width="109" height="109" filterUnits="userSpaceOnUse" color-interpolation-filters="sRGB">
<feFlood flood-opacity="0" result="BackgroundImageFix"/>
<feGaussianBlur in="BackgroundImageFix" stdDeviation="6"/>
<feComposite in2="SourceAlpha" operator="in" result="effect1_backgroundBlur_1021_2376"/>
<feBlend mode="normal" in="SourceGraphic" in2="effect1_backgroundBlur_1021_2376" result="shape"/>
</filter>
<filter id="filter2_d_1021_2376" x="542" y="159" width="253" height="253" filterUnits="userSpaceOnUse" color-interpolation-filters="sRGB">
<feFlood flood-opacity="0" result="BackgroundImageFix"/>
<feColorMatrix in="SourceAlpha" type="matrix" values="0 0 0 0 0 0 0 0 0 0 0 0 0 0 0 0 0 0 127 0" result="hardAlpha"/>
<feOffset dx="7" dy="4"/>
<feGaussianBlur stdDeviation="42"/>
<feComposite in2="hardAlpha" operator="out"/>
<feColorMatrix type="matrix" values="0 0 0 0 0 0 0 0 0 0 0 0 0 0 0 0 0 0 0.16 0"/>
<feBlend mode="normal" in2="BackgroundImageFix" result="effect1_dropShadow_1021_2376"/>
<feBlend mode="normal" in="SourceGraphic" in2="effect1_dropShadow_1021_2376" result="shape"/>
</filter>
<filter id="filter3_b_1021_2376" x="607" y="227" width="109" height="109" filterUnits="userSpaceOnUse" color-interpolation-filters="sRGB">
<feFlood flood-opacity="0" result="BackgroundImageFix"/>
<feGaussianBlur in="BackgroundImageFix" stdDeviation="6"/>
<feComposite in2="SourceAlpha" operator="in" result="effect1_backgroundBlur_1021_2376"/>
<feBlend mode="normal" in="SourceGraphic" in2="effect1_backgroundBlur_1021_2376" result="shape"/>
</filter>
<filter id="filter4_d_1021_2376" x="0" y="172" width="253" height="253" filterUnits="userSpaceOnUse" color-interpolation-filters="sRGB">
<feFlood flood-opacity="0" result="BackgroundImageFix"/>
<feColorMatrix in="SourceAlpha" type="matrix" values="0 0 0 0 0 0 0 0 0 0 0 0 0 0 0 0 0 0 127 0" result="hardAlpha"/>
<feOffset dx="7" dy="4"/>
<feGaussianBlur stdDeviation="42"/>
<feComposite in2="hardAlpha" operator="out"/>
<feColorMatrix type="matrix" values="0 0 0 0 0 0 0 0 0 0 0 0 0 0 0 0 0 0 0.16 0"/>
<feBlend mode="normal" in2="BackgroundImageFix" result="effect1_dropShadow_1021_2376"/>
<feBlend mode="normal" in="SourceGraphic" in2="effect1_dropShadow_1021_2376" result="shape"/>
</filter>
<filter id="filter5_b_1021_2376" x="65" y="240" width="109" height="109" filterUnits="userSpaceOnUse" color-interpolation-filters="sRGB">
<feFlood flood-opacity="0" result="BackgroundImageFix"/>
<feGaussianBlur in="BackgroundImageFix" stdDeviation="6"/>
<feComposite in2="SourceAlpha" operator="in" result="effect1_backgroundBlur_1021_2376"/>
<feBlend mode="normal" in="SourceGraphic" in2="effect1_backgroundBlur_1021_2376" result="shape"/>
</filter>
<filter id="filter6_d_1021_2376" x="148" y="0" width="253" height="253" filterUnits="userSpaceOnUse" color-interpolation-filters="sRGB">
<feFlood flood-opacity="0" result="BackgroundImageFix"/>
<feColorMatrix in="SourceAlpha" type="matrix" values="0 0 0 0 0 0 0 0 0 0 0 0 0 0 0 0 0 0 127 0" result="hardAlpha"/>
<feOffset dx="7" dy="4"/>
<feGaussianBlur stdDeviation="42"/>
<feComposite in2="hardAlpha" operator="out"/>
<feColorMatrix type="matrix" values="0 0 0 0 0 0 0 0 0 0 0 0 0 0 0 0 0 0 0.16 0"/>
<feBlend mode="normal" in2="BackgroundImageFix" result="effect1_dropShadow_1021_2376"/>
<feBlend mode="normal" in="SourceGraphic" in2="effect1_dropShadow_1021_2376" result="shape"/>
</filter>
<filter id="filter7_b_1021_2376" x="213" y="68" width="109" height="109" filterUnits="userSpaceOnUse" color-interpolation-filters="sRGB">
<feFlood flood-opacity="0" result="BackgroundImageFix"/>
<feGaussianBlur in="BackgroundImageFix" stdDeviation="6"/>
<feComposite in2="SourceAlpha" operator="in" result="effect1_backgroundBlur_1021_2376"/>
<feBlend mode="normal" in="SourceGraphic" in2="effect1_backgroundBlur_1021_2376" result="shape"/>
</filter>
<filter id="filter8_d_1021_2376" x="405" y="54" width="253" height="253" filterUnits="userSpaceOnUse" color-interpolation-filters="sRGB">
<feFlood flood-opacity="0" result="BackgroundImageFix"/>
<feColorMatrix in="SourceAlpha" type="matrix" values="0 0 0 0 0 0 0 0 0 0 0 0 0 0 0 0 0 0 127 0" result="hardAlpha"/>
<feOffset dx="7" dy="4"/>
<feGaussianBlur stdDeviation="42"/>
<feComposite in2="hardAlpha" operator="out"/>
<feColorMatrix type="matrix" values="0 0 0 0 0 0 0 0 0 0 0 0 0 0 0 0 0 0 0.16 0"/>
<feBlend mode="normal" in2="BackgroundImageFix" result="effect1_dropShadow_1021_2376"/>
<feBlend mode="normal" in="SourceGraphic" in2="effect1_dropShadow_1021_2376" result="shape"/>
</filter>
<filter id="filter9_b_1021_2376" x="470" y="122" width="109" height="109" filterUnits="userSpaceOnUse" color-interpolation-filters="sRGB">
<feFlood flood-opacity="0" result="BackgroundImageFix"/>
<feGaussianBlur in="BackgroundImageFix" stdDeviation="6"/>
<feComposite in2="SourceAlpha" operator="in" result="effect1_backgroundBlur_1021_2376"/>
<feBlend mode="normal" in="SourceGraphic" in2="effect1_backgroundBlur_1021_2376" result="shape"/>
</filter>
<radialGradient id="paint0_radial_1021_2376" cx="0" cy="0" r="1" gradientUnits="userSpaceOnUse" gradientTransform="translate(661.66 284.204) scale(32.5141 30.0532)">
<stop stop-color="#FFB900"/>
<stop offset="0.6" stop-color="#F95D8F"/>
<stop offset="0.999" stop-color="#F95353"/>
</radialGradient>
<linearGradient id="paint1_linear_1021_2376" x1="2769.07" y1="154.4" x2="2769.07" y2="4687.73" gradientUnits="userSpaceOnUse">
<stop stop-color="#0091E6"/>
<stop offset="1" stop-color="#0079BF"/>
</linearGradient>
<clipPath id="clip0_1021_2376">
<rect width="33.9753" height="51" fill="white" transform="translate(369.066 341)"/>
</clipPath>
<clipPath id="clip1_1021_2376">
<rect width="49.0408" height="45.3333" fill="white" transform="translate(637.133 259.4)"/>
</clipPath>
<clipPath id="clip2_1021_2376">
<rect width="45.3333" height="45.3333" fill="white" transform="translate(97.3984 272.4)"/>
</clipPath>
<clipPath id="clip3_1021_2376">
<rect width="50.4376" height="45.3333" fill="white" transform="translate(242 100.4)"/>
</clipPath>
<clipPath id="clip4_1021_2376">
<rect width="45.3333" height="45.3333" fill="white" transform="translate(502.398 154.4)"/>
</clipPath>
</defs>
</svg>
