<svg width="64" height="64" viewBox="0 0 64 64" fill="none" xmlns="http://www.w3.org/2000/svg">
<path fill-rule="evenodd" clip-rule="evenodd" d="M41.7323 11.3677L43.9012 11.6379C48.9075 12.2614 52.6654 16.5163 52.6654 21.5612V49.533C52.6654 54.4314 49.0167 58.5627 44.1558 59.1681C36.0823 60.1735 27.9151 60.1735 19.8416 59.1681C14.9807 58.5627 11.332 54.4314 11.332 49.533V21.5612C11.332 16.5162 15.0899 12.2614 20.0962 11.6379L22.2651 11.3677C23.1243 8.27215 25.9628 6 29.332 6H34.6654C38.0346 6 40.8731 8.27215 41.7323 11.3677ZM21.9987 15.4318L20.5905 15.6072C17.5867 15.9813 15.332 18.5342 15.332 21.5612V49.533C15.332 52.4134 17.4776 54.8427 20.3359 55.1987C28.0812 56.1633 35.9162 56.1633 43.6615 55.1987C46.5198 54.8427 48.6654 52.4134 48.6654 49.533V21.5612C48.6654 18.5342 46.4107 15.9813 43.4069 15.6072L41.9987 15.4318V18.6667C41.9987 19.7712 41.1033 20.6667 39.9987 20.6667H23.9987C22.8941 20.6667 21.9987 19.7712 21.9987 18.6667V15.4318ZM25.9987 13.3333C25.9987 11.4924 27.4911 10 29.332 10H34.6654C36.5063 10 37.9987 11.4924 37.9987 13.3333V16.6667H25.9987V13.3333Z" fill="white"/>
<path d="M41.9987 31.3333C41.9987 30.2288 41.1033 29.3333 39.9987 29.3333H23.9987C22.8941 29.3333 21.9987 30.2288 21.9987 31.3333C21.9987 32.4379 22.8941 33.3333 23.9987 33.3333H39.9987C41.1033 33.3333 41.9987 32.4379 41.9987 31.3333Z" fill="white"/>
<path d="M39.332 39.3333C39.332 38.2288 38.4366 37.3333 37.332 37.3333H23.9987C22.8941 37.3333 21.9987 38.2288 21.9987 39.3333C21.9987 40.4379 22.8941 41.3333 23.9987 41.3333H37.332C38.4366 41.3333 39.332 40.4379 39.332 39.3333Z" fill="white"/>
</svg>
