<svg width="64" height="64" viewBox="0 0 64 64" fill="none" xmlns="http://www.w3.org/2000/svg">
<path d="M21.3346 25.3334C19.4937 25.3334 18.0013 26.8258 18.0013 28.6668C18.0013 30.5077 19.4937 32.0001 21.3346 32.0001C23.1756 32.0001 24.668 30.5077 24.668 28.6668C24.668 26.8258 23.1756 25.3334 21.3346 25.3334Z" fill="white"/>
<path d="M32.0013 25.3334C30.1604 25.3334 28.668 26.8258 28.668 28.6668C28.668 30.5077 30.1604 32.0001 32.0013 32.0001C33.8423 32.0001 35.3346 30.5077 35.3346 28.6668C35.3346 26.8258 33.8423 25.3334 32.0013 25.3334Z" fill="white"/>
<path d="M39.3346 28.6668C39.3346 26.8258 40.827 25.3334 42.668 25.3334C44.5089 25.3334 46.0013 26.8258 46.0013 28.6668C46.0013 30.5077 44.5089 32.0001 42.668 32.0001C40.827 32.0001 39.3346 30.5077 39.3346 28.6668Z" fill="white"/>
<path fill-rule="evenodd" clip-rule="evenodd" d="M42.9366 12.2475C35.7521 11.6349 28.53 11.5993 21.3398 12.1412L20.8245 12.1801C13.9677 12.6968 8.66797 18.4111 8.66797 25.2873V48.0001C8.66797 48.7038 9.03774 49.3557 9.6417 49.7167C10.2457 50.0778 10.9949 50.0949 11.6147 49.7618L22.0435 44.1573C22.5286 43.8966 23.0707 43.7601 23.6215 43.7601H47.5585C50.5774 43.7601 53.1646 41.6017 53.7058 38.6317C54.8025 32.6124 54.8892 26.4525 53.9621 20.4048L53.689 18.6226C53.1916 15.3779 50.5372 12.8957 47.2665 12.6168L42.9366 12.2475ZM21.6404 16.1299C28.6174 15.6041 35.6253 15.6386 42.5967 16.2331L46.9267 16.6023C48.3569 16.7243 49.5176 17.8097 49.7351 19.2286L50.0083 21.0108C50.868 26.6196 50.7877 32.3324 49.7706 37.9147C49.5758 38.9834 48.6449 39.7601 47.5585 39.7601H23.6215C22.4099 39.7601 21.2172 40.0603 20.15 40.6338L12.668 44.6548V25.2873C12.668 20.5036 16.3549 16.5283 21.1252 16.1687L21.6404 16.1299Z" fill="white"/>
</svg>
