<svg width="18" height="18" viewBox="0 0 18 18" fill="none" xmlns="http://www.w3.org/2000/svg">
<path fill-rule="evenodd" clip-rule="evenodd" d="M9 18C13.9706 18 18 13.9706 18 9C18 4.02944 13.9706 0 9 0C4.02944 0 0 4.02944 0 9C0 13.9706 4.02944 18 9 18ZM13.4137 7.31044C13.6326 7.09153 13.6326 6.73661 13.4137 6.5177C13.1948 6.29879 12.8399 6.29879 12.621 6.5177L7.78552 11.3532L5.19228 8.75991C4.97337 8.541 4.61844 8.541 4.39953 8.75991C4.18062 8.97882 4.18062 9.33375 4.39953 9.55266L7.38915 12.5423C7.60806 12.7612 7.96299 12.7612 8.1819 12.5423L13.4137 7.31044Z" fill="#6738EE"/>
</svg>
