<svg width="104" height="23" viewBox="0 0 104 23" fill="none" xmlns="http://www.w3.org/2000/svg">
<path d="M27.8517 21.3279V21.5186H19.7179V21.3279C20.632 21.1691 20.992 20.9465 21.0896 20.2475V9.69651C21.0896 7.75671 20.3714 6.80321 18.9014 6.80321C18.4154 6.81281 17.945 6.97171 17.5575 7.25721C17.1699 7.54261 16.885 7.94011 16.7434 8.39271C16.8101 8.76011 16.8431 9.13261 16.8418 9.50581V19.425C16.8418 20.6012 17.2009 21.0784 18.3093 21.3321V21.5228H10.5354V21.3279C11.6455 21.0759 12.0028 20.597 12.0028 19.4208V9.69231C12.0028 7.75251 11.251 6.79901 9.81379 6.79901C9.35679 6.80311 8.91269 6.94631 8.54359 7.20871C8.17449 7.47101 7.89909 7.83921 7.75599 8.26161V19.4208C7.75599 20.597 8.11508 21.0742 9.22338 21.3279V21.5186H0.992188V21.3279C2.26529 21.0423 2.91879 20.5012 2.91879 19.2276V9.09251C2.91879 7.40721 2.46209 6.89811 0.992188 6.77121V6.58051L7.75339 4.76841V7.75671C8.03829 6.84491 8.62558 6.05081 9.42348 5.49851C10.2215 4.94631 11.1851 4.66701 12.1634 4.70451C14.6131 4.70451 16.1487 5.91261 16.6381 7.88441C16.9565 6.93891 17.58 6.11871 18.4157 5.54581C19.2515 4.97291 20.255 4.67781 21.2769 4.70451C24.3153 4.70451 25.9156 6.61241 25.9156 9.50581V19.2343C25.9242 20.5054 26.5776 21.0465 27.8517 21.3279Z" fill="#8C87A6"/>
<path d="M45.132 18.0582C44.577 20.6625 42.8454 22.0008 40.5571 22.0008C40.1447 22.0375 39.7288 21.994 39.3338 21.8727C38.9388 21.7515 38.5726 21.5549 38.2564 21.2946C37.9402 21.0342 37.6804 20.7152 37.4921 20.3562C37.3038 19.9971 37.1908 19.6052 37.1596 19.2033L37.0949 18.9512C36.7963 19.8732 36.1918 20.6728 35.3763 21.2246C34.5608 21.7765 33.5803 22.0495 32.5883 22.0008C32.0272 22.0433 31.4631 21.9719 30.9319 21.7911C30.4007 21.6102 29.9138 21.3239 29.5023 20.9503C29.0908 20.5767 28.7635 20.1239 28.5412 19.6207C28.319 19.1175 28.2065 18.5748 28.2111 18.0271C28.2111 15.1976 30.5632 13.3535 34.3198 12.5899L37.031 12.0497V11.3776C37.031 8.92947 36.1161 7.24497 33.372 7.24497C31.2495 7.24497 29.7467 8.23047 29.0277 10.7105L28.7687 10.6467C29.2866 6.99047 31.7734 4.70117 35.6284 4.70117C39.9727 4.70117 41.8674 7.40377 41.8674 11.4733V17.8633C41.8674 18.9764 42.4224 19.5485 43.1415 19.5485C43.7621 19.5485 44.4803 19.1991 44.8394 18.0229L45.132 18.0582ZM37.031 18.4085V12.8436L35.757 13.0662C33.2089 13.5753 32.7195 15.1329 32.7195 16.6905C32.7195 18.3119 33.536 19.5838 35.1036 19.5838C35.5117 19.6139 35.919 19.5161 36.2658 19.3046C36.6127 19.0931 36.8808 18.7791 37.031 18.4085Z" fill="#8C87A6"/>
<path d="M62.8725 21.3277V21.5184H54.6413V21.3277C55.7194 21.0757 56.1087 20.5968 56.1087 19.4206V9.72821C56.1087 7.78841 55.3577 6.80291 53.8221 6.80291C53.3015 6.79861 52.7912 6.94411 52.3553 7.22122C51.9194 7.49841 51.5775 7.89482 51.3724 8.36052V19.4248C51.3724 20.601 51.7315 21.0782 52.8399 21.3319V21.5226H44.6094V21.3277C45.8835 21.0421 46.5369 20.501 46.5369 19.2274V9.09222C46.5369 7.40702 46.0794 6.89782 44.6094 6.77102V6.58032L51.3716 4.76822V7.88582C51.7028 6.91592 52.3526 6.07902 53.2208 5.50402C54.089 4.92912 55.1275 4.64812 56.176 4.70432C59.2835 4.70432 60.9451 6.55262 60.9451 9.53672V19.2341C60.946 20.5052 61.5994 21.0463 62.8725 21.3277Z" fill="#8C87A6"/>
<path d="M73.9799 17.7718C73.2619 20.0922 71.4979 22.0001 68.6559 22.0001C65.9119 22.0001 64.6049 20.3149 64.6049 17.8357V5.8808H62.7109V5.722C65.3139 4.2942 67.5739 2.3437 69.3419 0H69.4729V5.2457H72.7719V5.8808H69.4689V17.1039C69.4689 18.5666 70.0899 19.552 71.2979 19.552C71.8599 19.5511 72.4039 19.3652 72.8429 19.0245C73.2819 18.6839 73.5889 18.2085 73.7149 17.676L73.9799 17.7718Z" fill="#8C87A6"/>
<path d="M87.5383 15.7694C86.7213 20.3472 83.7492 22.0006 80.9072 22.0006C77.1172 22.0006 73.6562 19.1391 73.6562 13.6708C73.6562 8.45698 76.6292 4.70508 81.1042 4.70508C84.2722 4.70508 87.5392 6.64488 87.5062 11.8906H77.4453C77.7723 15.9601 79.9283 18.2175 83.0973 18.2175C83.9833 18.2969 84.8732 18.0952 85.6322 17.6425C86.3912 17.1898 86.9802 16.5104 87.3102 15.7056L87.5383 15.7694ZM77.4112 10.743V11.0925H83.0622C83.0952 7.02298 82.0173 5.59228 80.3863 5.59228C78.5553 5.59558 77.4112 7.56648 77.4112 10.743Z" fill="#8C87A6"/>
<path d="M100.05 4.70508V9.28368H99.8874C99.3534 9.05538 98.7704 8.95698 98.1884 8.99718C96.0654 8.99718 94.6604 10.1104 94.6604 14.3387V19.2349C94.6604 20.6631 95.4774 21.11 97.2404 21.3352V21.5259H87.8984V21.3285C89.1724 21.0428 89.8264 20.5018 89.8264 19.2282V9.37868C89.8264 7.56648 89.3354 6.93058 87.8984 6.80368V6.61298L94.4644 4.76898V11.8906H94.6284C94.8874 6.77178 96.8494 4.70508 99.6914 4.70508H100.05Z" fill="#8C87A6"/>
<path d="M98.6094 19.3289C98.6204 18.6357 98.9114 17.9744 99.4184 17.4874C99.9254 17.0004 100.608 16.7265 101.32 16.7246C102.027 16.7337 102.702 17.011 103.202 17.4975C103.702 17.9839 103.987 18.6411 103.996 19.3289C104 20.0239 103.72 20.692 103.218 21.1866C102.717 21.6813 102.034 21.9622 101.32 21.9677C100.964 21.9686 100.611 21.901 100.281 21.7687C99.9524 21.6364 99.6534 21.442 99.4014 21.1968C99.1494 20.9516 98.9494 20.6604 98.8134 20.3398C98.6774 20.0193 98.6084 19.6757 98.6094 19.3289Z" fill="#8C87A6"/>
</svg>
