<svg width="143" height="34" viewBox="0 0 143 34" fill="none" xmlns="http://www.w3.org/2000/svg">
<path d="M116.188 33.9894C115.91 33.9352 115.635 33.8851 115.358 33.8267C113.971 33.5349 113.014 32.6758 112.293 31.5062C112.107 31.2039 111.928 30.8974 111.613 30.6159C111.528 31.5708 111.444 32.5257 111.357 33.5098H107.539V0.0126953H112.176V12.4808L112.299 12.535C112.416 12.3641 112.535 12.1973 112.647 12.0242C114.636 8.95097 119.202 8.56941 121.525 11.9512C122.716 13.6859 123.272 15.6416 123.55 17.6891C123.998 21.0167 123.923 24.3234 123.016 27.576C122.599 29.073 121.965 30.4741 120.95 31.6751C119.903 32.9135 118.621 33.7454 116.961 33.8976C116.863 33.906 116.769 33.956 116.673 33.9873H116.185L116.188 33.9894ZM112.257 21.8673H112.176C112.176 22.9411 112.164 24.0149 112.18 25.0886C112.201 26.4793 112.574 27.7782 113.385 28.9125C114.501 30.472 116.467 30.5075 117.593 28.9542C118.035 28.3454 118.389 27.6135 118.566 26.8859C119.386 23.5499 119.438 20.1827 118.587 16.8488C118.364 15.9773 117.897 15.0995 117.324 14.4011C116.325 13.1834 114.724 13.2377 113.648 14.3886C112.816 15.2788 112.33 16.3568 112.274 17.5598C112.207 18.9943 112.257 20.4329 112.257 21.8694V21.8673Z" fill="#8C87A6"/>
<path d="M76.2941 33.9905C75.998 33.9321 75.6999 33.8779 75.4059 33.8133C73.5711 33.4005 72.3326 32.2287 71.4194 30.6629C70.5041 29.0971 70.0266 27.3811 69.7848 25.6006C69.3136 22.15 69.374 18.7243 70.4395 15.3717C70.9691 13.7058 71.7801 12.1921 73.127 11.0246C74.4009 9.91744 75.8729 9.40452 77.5763 9.63179C78.9295 9.81318 79.974 10.4699 80.71 11.6146C80.808 11.7668 80.9019 11.9232 80.9999 12.0754C81.0082 12.09 81.0353 12.0921 81.127 12.1337V0.00756836H85.7598V33.5443C85.2803 33.5443 84.6798 33.5443 84.0814 33.5443C83.5519 33.5443 83.0223 33.5235 82.4969 33.5506C82.0924 33.5714 81.9235 33.4505 81.9006 33.0189C81.863 32.2725 81.7546 31.5302 81.6629 30.6671C81.5148 30.8443 81.421 30.9277 81.3585 31.0319C80.3639 32.6749 78.9649 33.7069 77.0113 33.9092C76.9342 33.9175 76.8591 33.9613 76.784 33.9884H76.2962L76.2941 33.9905ZM81.0791 21.8601H81.1437C81.1437 20.7238 81.1583 19.5875 81.1395 18.4533C81.1187 17.1356 80.8831 15.8679 80.095 14.765C78.9232 13.1283 76.9196 13.0699 75.7561 14.7129C75.287 15.3759 74.9326 16.1703 74.7241 16.9584C73.9923 19.723 74.0194 22.5336 74.428 25.3462C74.6136 26.6201 74.9472 27.8544 75.727 28.9115C76.8862 30.4857 78.8377 30.4898 79.9928 28.9178C80.6037 28.0859 81.0249 27.1476 81.0645 26.1135C81.1187 24.6978 81.0791 23.2779 81.0791 21.8581V21.8601Z" fill="#8C87A6"/>
<path d="M96.3057 33.9924C95.9471 33.934 95.5864 33.8819 95.2299 33.8152C93.1241 33.4149 91.5687 32.2306 90.4553 30.4375C89.4295 28.7862 88.9207 26.9577 88.6851 25.05C88.3119 22.0268 88.362 19.0223 89.2335 16.0742C89.7151 14.4395 90.4761 12.9488 91.6958 11.7249C94.9213 8.48488 100.069 8.94983 102.646 12.7174C103.83 14.45 104.404 16.4078 104.654 18.4615C105.073 21.8787 105.01 25.2668 103.745 28.5277C102.775 31.0297 101.149 32.9166 98.4616 33.6838C97.9591 33.8277 97.4316 33.8923 96.9166 33.9924H96.3057ZM100.203 21.2783C100.148 20.6069 100.092 19.4331 99.9482 18.2676C99.7876 16.9561 99.5061 15.6655 98.7889 14.5229C97.6651 12.7382 95.6031 12.7111 94.4855 14.5021C94.1061 15.1109 93.8079 15.8094 93.6453 16.5078C92.828 20.0148 92.8071 23.5446 93.662 27.0432C93.8705 27.9001 94.3083 28.7696 94.8608 29.4597C95.8887 30.7461 97.6672 30.6335 98.6075 29.2845C98.9953 28.7299 99.281 28.0773 99.4874 27.431C100.073 25.5983 100.157 23.6906 100.203 21.2783Z" fill="#8C87A6"/>
<path d="M142.428 10.7501C142.361 10.8731 142.3 11.0002 142.227 11.1191C141.944 11.5715 141.523 11.7237 141.026 11.5778C140.551 11.4381 140.305 11.0837 140.301 10.5812C140.297 10.0766 140.545 9.72634 141.016 9.57622C141.514 9.41568 141.929 9.58456 142.221 10.0203C142.298 10.135 142.359 10.2643 142.428 10.3852V10.7501ZM142.167 10.5582C142.156 10.0912 141.76 9.6888 141.32 9.70131C140.88 9.71174 140.497 10.1329 140.507 10.5937C140.518 11.0607 140.914 11.4569 141.358 11.4485C141.802 11.4402 142.179 11.0232 142.169 10.5582H142.167Z" fill="#8C87A6"/>
<path d="M48.9922 33.5445C49.3258 32.0579 49.6364 30.6568 49.9534 29.2578C52.0362 20.0464 54.1254 10.8371 56.1853 1.62151C56.325 0.998102 56.5627 0.822962 57.1882 0.850067C58.508 0.906361 59.832 0.885511 61.1517 0.856321C61.5875 0.845896 61.7314 0.98351 61.821 1.40884C63.9081 11.2833 66.0139 21.1535 68.1155 31.0238C68.2886 31.8327 68.4554 32.6438 68.6451 33.5466H65.305C64.5016 33.5466 64.02 33.1574 63.8601 32.379C63.3555 29.9583 62.8364 27.5419 62.3527 25.117C62.2589 24.6479 62.067 24.5061 61.5896 24.5145C59.7194 24.5437 57.8491 24.5416 55.9789 24.5145C55.5411 24.5082 55.3868 24.6563 55.2992 25.0691C54.7488 27.7066 54.1608 30.3378 53.6146 32.9774C53.5207 33.4298 53.3394 33.5633 52.8911 33.5528C51.6172 33.5236 50.3412 33.5424 48.9943 33.5424L48.9922 33.5445ZM58.8729 5.68095C57.9221 10.7307 56.9735 15.7639 56.0185 20.8283H61.6125C60.6951 15.7618 59.784 10.7307 58.8708 5.68095H58.8729Z" fill="#8C87A6"/>
<path d="M0.00208497 33.2116V0.982178H13.6211C9.10715 11.751 4.6057 22.4928 0.102164 33.2367L0 33.2116H0.00208497Z" fill="#8C87A6"/>
<path d="M23.25 0.966442H36.8586V33.1959L36.7669 33.2355C32.2758 22.5125 27.7827 11.7874 23.25 0.964355V0.966442Z" fill="#8C87A6"/>
<path d="M141.668 22.6951H130.643C130.62 22.8452 130.568 22.9807 130.582 23.11C130.701 24.1129 130.741 25.1387 130.976 26.1145C131.723 29.196 133.862 30.6117 137.058 30.1614C138.057 30.0217 139.033 29.7298 140.109 29.4879C140.302 30.4241 140.528 31.4415 140.701 32.4674C140.719 32.582 140.461 32.8072 140.288 32.8802C138.568 33.587 136.758 33.8101 134.915 33.7705C131.056 33.685 128.31 31.8106 127.061 28.1598C125.528 23.6813 125.683 19.1861 127.432 14.7785C127.999 13.3461 128.898 12.1201 130.105 11.1339C132.938 8.81754 138.03 8.68618 140.33 13.2835C141.132 14.8869 141.547 16.5986 141.651 18.3688C141.735 19.7782 141.668 21.1981 141.668 22.693V22.6951ZM137.375 19.3842C137.375 19.0235 137.392 18.742 137.373 18.4626C137.263 16.8947 137.067 15.3456 136.064 14.0487C135.065 12.7561 133.464 12.6706 132.388 13.8965C131.02 15.4561 130.789 17.4014 130.601 19.3863H137.375V19.3842Z" fill="#8C87A6"/>
<path d="M27.1412 33.5367C25.2481 33.5367 23.4633 33.5493 21.6807 33.5159C21.5306 33.5138 21.3241 33.2344 21.2449 33.0405C20.5173 31.2579 19.7834 29.4773 19.1182 27.6738C18.9098 27.1067 18.6179 26.9649 18.0549 26.9774C16.4516 27.0129 14.8441 26.9899 13.2407 26.9899C13.0218 26.9899 12.8029 26.9899 12.4609 26.9899C14.4563 22.2988 16.412 17.7035 18.4365 12.9414C21.3658 19.8718 24.2348 26.6626 27.1412 33.5367Z" fill="#8C87A6"/>
<path d="M39.7341 1.9864C39.7383 2.56185 39.2796 3.04973 38.7187 3.06432C38.1433 3.081 37.6304 2.56393 37.6408 1.98014C37.6491 1.42137 38.1433 0.931396 38.6958 0.931396C39.2566 0.931396 39.732 1.41303 39.7362 1.9864H39.7341ZM38.7125 2.86208C39.167 2.85583 39.5256 2.46177 39.5152 1.98014C39.5047 1.49851 39.1295 1.11905 38.677 1.12947C38.2267 1.1399 37.8576 1.54438 37.868 2.0135C37.8785 2.48678 38.2558 2.86625 38.7125 2.85999V2.86208Z" fill="#8C87A6"/>
<path d="M140.973 10.0221C141.469 9.98039 141.892 9.92411 141.671 10.6163C141.625 10.7602 141.713 10.9457 141.767 11.2898C141.552 10.9979 141.446 10.8519 141.298 10.6497C141.189 10.8457 141.112 10.9791 140.973 11.2293V10.0221Z" fill="#8C87A6"/>
<path d="M39.0434 2.61391C38.9079 2.42209 38.8015 2.26989 38.6514 2.05723L38.4075 2.54302L38.3074 2.53051C38.3074 2.26155 38.2657 1.98217 38.3241 1.72572C38.3533 1.59645 38.5784 1.40671 38.6889 1.42339C38.8349 1.44424 39.0455 1.62146 39.0726 1.76116C39.1247 2.01552 39.0601 2.29074 39.0413 2.61391H39.0434Z" fill="#8C87A6"/>
</svg>
