<svg width="44" height="44" viewBox="0 0 44 44" fill="none" xmlns="http://www.w3.org/2000/svg">
<path fill-rule="evenodd" clip-rule="evenodd" d="M22.5181 0.63116C10.7165 0.345073 0.91749 9.68026 0.631404 21.4819C0.345317 33.2835 9.6805 43.0825 21.4821 43.3686C22.2419 43.387 22.929 43.1739 23.5031 42.7397C24.0601 42.3184 24.446 41.7388 24.7159 41.1187C25.245 39.903 25.4233 38.3086 25.4322 36.6645C25.4646 30.7206 30.6789 25.5586 36.5634 25.7816C38.1823 25.8429 39.744 25.7562 40.9475 25.3593C41.5564 25.1584 42.149 24.8541 42.6029 24.3794C43.0796 23.8808 43.3512 23.2466 43.3689 22.5179C43.6549 10.7163 34.3198 0.917246 22.5181 0.63116ZM15.0027 29.656C13.7693 29.8068 12.8916 30.929 13.0425 32.1625C13.1933 33.3959 14.3155 34.2735 15.549 34.1227C16.7824 33.9718 17.6601 32.8497 17.5092 31.6162C17.3584 30.3828 16.2362 29.5051 15.0027 29.656ZM7.48327 23.7753C7.33242 22.5418 8.21005 21.4196 9.4435 21.2688C10.6769 21.118 11.7991 21.9956 11.95 23.229C12.1008 24.4625 11.2232 25.5847 9.98976 25.7355C8.75631 25.8864 7.63411 25.0087 7.48327 23.7753ZM12.8177 11.7891C11.5842 11.94 10.7066 13.0622 10.8574 14.2956C11.0083 15.5291 12.1305 16.4067 13.3639 16.2558C14.5974 16.105 15.475 14.9828 15.3242 13.7493C15.1733 12.5159 14.0511 11.6383 12.8177 11.7891ZM30.319 15.8824C30.1681 14.6489 31.0457 13.5267 32.2792 13.3759C33.5127 13.225 34.6348 14.1027 34.7857 15.3361C34.9365 16.5696 34.0589 17.6918 32.8255 17.8426C31.592 17.9935 30.4698 17.1158 30.319 15.8824ZM21.9834 19.4768C20.75 19.6276 19.8724 20.7498 20.0232 21.9833C20.174 23.2167 21.2962 24.0944 22.5297 23.9435C23.7631 23.7927 24.6408 22.6705 24.4899 21.437C24.3391 20.2036 23.2169 19.326 21.9834 19.4768ZM20.6345 10.8331C20.4836 9.59968 21.3612 8.47748 22.5947 8.32664C23.8281 8.17579 24.9503 9.05341 25.1012 10.2869C25.252 11.5203 24.3744 12.6425 23.1409 12.7934C21.9075 12.9442 20.7853 12.0666 20.6345 10.8331Z" fill="#CCA5E4"/>
</svg>
