<svg width="78" height="78" viewBox="0 0 78 78" fill="none" xmlns="http://www.w3.org/2000/svg">
<path fill-rule="evenodd" clip-rule="evenodd" d="M18.9804 32.0326C24.7892 44.6812 35.1258 54.7372 47.9755 60.1862L48.0161 60.2034L50.4985 61.3098C53.6595 62.7182 57.375 61.7179 59.4017 58.9129L63.5434 53.1808C63.7964 52.8306 63.7312 52.3438 63.395 52.0725L56.1646 46.2394C55.8052 45.9495 55.2766 46.017 55.0017 46.3881L52.1876 50.1853C51.5042 51.1075 50.27 51.4279 49.2243 50.9547C39.616 46.6064 31.8949 38.8854 27.5466 29.277C27.0734 28.2313 27.3938 26.9971 28.316 26.3137L32.1132 23.4997C32.4843 23.2247 32.5518 22.6962 32.2619 22.3367L26.428 15.1053C26.1568 14.7692 25.6701 14.704 25.32 14.9567L19.5568 19.1172C16.7333 21.1556 15.7389 24.9023 17.1801 28.0726L18.9785 32.0283C18.9791 32.0297 18.9798 32.0311 18.9804 32.0326ZM46.0518 64.6656C32.0897 58.739 20.8598 47.8092 14.5482 34.0625L14.5444 34.0542L12.7422 30.0901C10.3402 24.8064 11.9974 18.5619 16.7034 15.1646L22.4666 11.0041C24.9175 9.23475 28.3242 9.69171 30.2222 12.0444L36.0561 19.2758C38.0859 21.7918 37.6131 25.4916 35.0158 27.4164L32.84 29.0289C36.5154 36.1607 42.3407 41.9859 49.4724 45.6614L51.085 43.4855C53.0097 40.8882 56.7095 40.4154 59.2256 42.4452L66.456 48.2783C68.8093 50.1769 69.2658 53.5849 67.4949 56.0358L63.3532 61.768C59.9753 66.443 53.7829 68.1101 48.5145 65.7628L46.0518 64.6656Z" fill="#6738EE"/>
</svg>
