<svg width="52" height="56" viewBox="0 0 52 56" fill="none" xmlns="http://www.w3.org/2000/svg">
<path fill-rule="evenodd" clip-rule="evenodd" d="M28.0956 6.10763C26.8064 5.33131 25.1936 5.33131 23.9044 6.10763L22.2264 7.11803C17.7374 9.82108 12.6978 11.4798 7.48095 11.9713L6.42379 12.0709C6.00643 12.1102 5.6875 12.4606 5.6875 12.8798V18.2224C5.6875 26.3719 8.99609 34.1722 14.8553 39.8365L25.4353 50.0643C25.7502 50.3687 26.2498 50.3687 26.5647 50.0643L37.1446 39.8365C43.0039 34.1723 46.3125 26.3719 46.3125 18.2224V12.8798C46.3125 12.4606 45.9936 12.1102 45.5762 12.0709L44.519 11.9713C39.3021 11.4798 34.2626 9.82108 29.7736 7.11803L28.0956 6.10763ZM21.3896 1.93132C24.2259 0.223415 27.7741 0.223413 30.6104 1.93132L32.2884 2.94172C36.151 5.2676 40.4874 6.69484 44.9763 7.11776L46.0335 7.21736C48.955 7.49261 51.1875 9.94534 51.1875 12.8798V18.2224C51.1875 27.6935 47.3424 36.7587 40.533 43.3415L29.953 53.5693C27.7485 55.7004 24.2515 55.7004 22.047 53.5693L11.467 43.3415C4.65762 36.7587 0.8125 27.6935 0.8125 18.2224V12.8798C0.8125 9.94534 3.04501 7.49261 5.96652 7.21736L7.02368 7.11776C11.5126 6.69484 15.849 5.2676 19.7116 2.94172L21.3896 1.93132Z" fill="#6738EE"/>
</svg>
