<svg width="36" height="44" viewBox="0 0 36 44" fill="none" xmlns="http://www.w3.org/2000/svg">
<path fill-rule="evenodd" clip-rule="evenodd" d="M23.0625 0.625C23.0625 0.314339 22.8107 0.0625 22.5 0.0625H6.75C3.33274 0.0625 0.5625 2.83274 0.5625 6.25V37.75C0.5625 41.1673 3.33274 43.9375 6.75 43.9375H29.25C32.6673 43.9375 35.4375 41.1673 35.4375 37.75V15.5809C35.4375 15.2702 35.1857 15.0184 34.875 15.0184H24.75C23.818 15.0184 23.0625 14.2629 23.0625 13.3309V0.625ZM24.75 22.5625C25.682 22.5625 26.4375 23.318 26.4375 24.25C26.4375 25.182 25.682 25.9375 24.75 25.9375H11.25C10.318 25.9375 9.5625 25.182 9.5625 24.25C9.5625 23.318 10.318 22.5625 11.25 22.5625H24.75ZM24.75 31.5625C25.682 31.5625 26.4375 32.318 26.4375 33.25C26.4375 34.182 25.682 34.9375 24.75 34.9375H11.25C10.318 34.9375 9.5625 34.182 9.5625 33.25C9.5625 32.318 10.318 31.5625 11.25 31.5625H24.75Z" fill="#B1EA6D"/>
<path d="M26.4375 1.3543C26.4375 0.93919 26.8709 0.675615 27.1939 0.936369C27.466 1.156 27.7105 1.4133 27.9192 1.70399L34.6988 11.1493C34.8531 11.3643 34.686 11.6434 34.4213 11.6434H27C26.6893 11.6434 26.4375 11.3915 26.4375 11.0809V1.3543Z" fill="#B1EA6D"/>
</svg>
