<svg width="34" height="36" viewBox="0 0 34 36" fill="none" xmlns="http://www.w3.org/2000/svg">
<path d="M19.6115 0.916967C18.0049 -0.0504482 15.9951 -0.0504471 14.3885 0.916968L13.2268 1.61648C10.4082 3.31374 7.2438 4.35524 3.96807 4.66386L3.23619 4.73281C1.79149 4.86892 0.6875 6.08181 0.6875 7.53291V11.2317C0.6875 17.4836 3.22569 23.4676 7.72063 27.8129L15.0452 34.8937C16.1353 35.9476 17.8647 35.9476 18.9548 34.8937L26.2794 27.8129C30.7743 23.4676 33.3125 17.4836 33.3125 11.2317V7.53291C33.3125 6.08181 32.2085 4.86892 30.7638 4.73281L30.0319 4.66386C26.7562 4.35524 23.5918 3.31374 20.7732 1.61648L19.6115 0.916967Z" fill="#88D9FC"/>
</svg>
