<svg width="64" height="64" viewBox="0 0 64 64" fill="none" xmlns="http://www.w3.org/2000/svg">
<rect width="64" height="64" rx="32" fill="#5138EE" fill-opacity="0.06"/>
<g clip-path="url(#clip0_1021_2449)">
<path d="M35.2254 35.5074L33.0124 40.1574C32.9706 40.2453 32.9079 40.3218 32.8299 40.3801C32.7519 40.4384 32.6609 40.4768 32.5647 40.4921C32.4686 40.5073 32.3701 40.4989 32.2779 40.4676C32.1857 40.4363 32.1025 40.3831 32.0354 40.3124L28.4934 36.5734C28.3988 36.4736 28.2728 36.4094 28.1364 36.3914L23.0294 35.7234C22.933 35.7107 22.841 35.6747 22.7615 35.6185C22.682 35.5624 22.6174 35.4877 22.5732 35.401C22.529 35.3143 22.5066 35.2181 22.5079 35.1208C22.5091 35.0235 22.534 34.928 22.5804 34.8424L25.0424 30.3184C25.1079 30.1974 25.1298 30.0576 25.1044 29.9224L24.1614 24.8594C24.1435 24.7636 24.1492 24.6648 24.1781 24.5717C24.2069 24.4786 24.258 24.3939 24.327 24.3249C24.3959 24.256 24.4806 24.2049 24.5737 24.1761C24.6669 24.1472 24.7656 24.1415 24.8614 24.1594L29.9244 25.1024C30.0596 25.1278 30.1994 25.1059 30.3204 25.0404L34.8444 22.5784C34.9301 22.532 35.0257 22.5071 35.1231 22.5059C35.2204 22.5047 35.3167 22.5272 35.4034 22.5715C35.4901 22.6158 35.5648 22.6806 35.6209 22.7602C35.677 22.8398 35.7129 22.9318 35.7254 23.0284L36.3934 28.1344C36.4114 28.2708 36.4757 28.3968 36.5754 28.4914L40.3144 32.0334C40.3851 32.1004 40.4384 32.1837 40.4697 32.2759C40.501 32.3681 40.5093 32.4665 40.4941 32.5627C40.4788 32.6589 40.4404 32.7499 40.3821 32.8279C40.3238 32.9059 40.2474 32.9686 40.1594 33.0104L35.5094 35.2234C35.385 35.2826 35.2847 35.3829 35.2254 35.5074ZM36.0224 37.4344L37.4364 36.0204L41.6794 40.2624L40.2644 41.6774L36.0224 37.4344Z" fill="#5138EE"/>
</g>
<defs>
<clipPath id="clip0_1021_2449">
<rect width="24" height="24" fill="white" transform="translate(20 20)"/>
</clipPath>
</defs>
</svg>
