<svg width="64" height="64" viewBox="0 0 64 64" fill="none" xmlns="http://www.w3.org/2000/svg">
<path fill-rule="evenodd" clip-rule="evenodd" d="M31.9998 10L51.3961 10.5484C54.8234 10.6453 57.6581 13.2471 58.0479 16.6535C58.9106 24.1938 58.9106 31.8078 58.0479 39.3481C57.6581 42.7545 54.8234 45.3563 51.3961 45.4532L36.6665 45.8697V51.3341H45.3332C46.4377 51.3341 47.3332 52.2296 47.3332 53.3341C47.3332 54.4387 46.4377 55.3341 45.3332 55.3341H18.6665C17.5619 55.3341 16.6665 54.4387 16.6665 53.3341C16.6665 52.2296 17.5619 51.3341 18.6665 51.3341H27.3332V45.8697L12.6035 45.4532C9.1762 45.3563 6.34149 42.7545 5.95174 39.3481C5.089 31.8078 5.089 24.1938 5.95174 16.6535C6.34149 13.2471 9.1762 10.6453 12.6035 10.5484L31.9998 10ZM31.9998 14.0016L12.7165 14.5468C11.2786 14.5875 10.0893 15.679 9.92581 17.1081C9.09765 24.3463 9.09765 31.6553 9.92581 38.8934C10.0893 40.3226 11.2786 41.4141 12.7165 41.4548L31.9998 42L51.2831 41.4548C52.721 41.4141 53.9103 40.3226 54.0738 38.8934C54.9019 31.6553 54.9019 24.3463 54.0738 17.1082C53.9103 15.679 52.721 14.5875 51.2831 14.5468L31.9998 14.0016Z" fill="white"/>
</svg>
