<svg width="78" height="78" viewBox="0 0 78 78" fill="none" xmlns="http://www.w3.org/2000/svg">
<path d="M50.3742 39C50.3742 36.3076 52.5568 34.125 55.2492 34.125C57.9416 34.125 60.1242 36.3076 60.1242 39C60.1242 41.6924 57.9416 43.875 55.2492 43.875C52.5568 43.875 50.3742 41.6924 50.3742 39Z" fill="#6738EE"/>
<path fill-rule="evenodd" clip-rule="evenodd" d="M66.4335 21.6906C64.2959 16.6672 59.5723 13.056 53.9514 12.4645L51.8328 12.2416C41.1328 11.1156 30.3404 11.1899 19.6568 12.463L18.253 12.6302C12.8294 13.2765 8.53213 17.5139 7.80973 22.9279C6.38634 33.5954 6.38634 44.4047 7.80973 55.0723C8.53213 60.4862 12.8295 64.7236 18.253 65.3699L19.6568 65.5372C30.3404 66.8103 41.1328 66.8845 51.8328 65.7586L53.9514 65.5356C59.5723 64.9441 64.2959 61.333 66.4335 56.3095C69.8112 55.3039 72.389 52.3758 72.8121 48.7578C73.5704 42.2747 73.5704 35.7254 72.8121 29.2424C72.389 25.6244 69.8112 22.6962 66.4335 21.6906ZM51.3226 17.0898C40.9841 16.0019 30.5563 16.0736 20.2337 17.3037L18.8299 17.471C15.6162 17.854 13.0699 20.3647 12.6419 23.5727C11.2756 33.8122 11.2756 44.1879 12.6419 54.4275C13.0699 57.6354 15.6162 60.1462 18.8299 60.5292L20.2337 60.6964C30.5563 61.9265 40.9841 61.9983 51.3226 60.9103L53.4412 60.6874C56.2055 60.3965 58.6513 59.0339 60.3463 57.0114C55.4448 57.2972 50.4781 57.1695 45.6349 56.6282C41.5095 56.1671 38.173 52.9186 37.6864 48.7578C36.9281 42.2747 36.9281 35.7254 37.6864 29.2424C38.173 25.0815 41.5095 21.833 45.6349 21.3719C50.4781 20.8306 55.4448 20.7029 60.3462 20.9887C58.6513 18.9662 56.2055 17.6037 53.4412 17.3128L51.3226 17.0898ZM62.6507 26.0478C62.6527 26.0603 62.6546 26.0728 62.6566 26.0853L62.6762 26.2116L63.3218 26.1114C63.6558 26.1444 63.9893 26.1796 64.3222 26.2168C66.2312 26.4301 67.7514 27.9386 67.9701 29.8087C68.6844 35.9155 68.6844 42.0847 67.9701 48.1915C67.7514 50.0615 66.2312 51.57 64.3222 51.7834C63.9893 51.8206 63.6558 51.8557 63.3217 51.8888L62.6762 51.7885L62.6566 51.9149C62.6546 51.9274 62.6527 51.9398 62.6507 51.9523C57.1951 52.4459 51.6001 52.3895 46.1764 51.7834C44.2673 51.57 42.7471 50.0615 42.5284 48.1915C41.8141 42.0847 41.8141 35.9155 42.5284 29.8087C42.7471 27.9386 44.2673 26.4301 46.1764 26.2168C51.6001 25.6106 57.1951 25.5543 62.6507 26.0478Z" fill="#6738EE"/>
</svg>
